<?xml version="1.0" encoding="UTF-8" standalone="no"?>
<svg
   xmlns:dc="http://purl.org/dc/elements/1.1/"
   xmlns:cc="http://creativecommons.org/ns#"
   xmlns:rdf="http://www.w3.org/1999/02/22-rdf-syntax-ns#"
   xmlns:svg="http://www.w3.org/2000/svg"
   xmlns="http://www.w3.org/2000/svg"
   viewBox="0 0 313.98532 79.140266"
   height="79.140266"
   width="313.98532"
   xml:space="preserve"
   id="svg2"
   version="1.1"><metadata
     id="metadata8"><rdf:RDF><cc:Work
         rdf:about=""><dc:format>image/svg+xml</dc:format><dc:type
           rdf:resource="http://purl.org/dc/dcmitype/StillImage" /></cc:Work></rdf:RDF></metadata><defs
     id="defs6"><clipPath
       id="clipPath18"
       clipPathUnits="userSpaceOnUse"><path
         id="path16"
         d="M 0,59.355 H 235.489 V 0 H 0 Z" /></clipPath></defs><g
     transform="matrix(1.3333333,0,0,-1.3333333,0,79.140267)"
     id="g10"><g
       id="g12"><g
         clip-path="url(#clipPath18)"
         id="g14"><g
           transform="translate(26.116,17.015)"
           id="g20"><path
             id="path22"
             style="fill:#1e22aa;fill-opacity:1;fill-rule:nonzero;stroke:none"
             d="m 0,0 c -4.025,-2.155 -7.721,-3.232 -11.09,-3.232 -4.549,0 -8.191,1.506 -10.925,4.518 -2.735,3.011 -4.101,6.913 -4.101,11.706 0,5.276 1.604,9.474 4.814,12.596 2.902,2.814 6.595,4.221 11.08,4.221 2.989,0 5.441,-0.583 7.353,-1.748 C -0.957,26.896 0,25.28 0,23.214 c 0,-1.231 -0.386,-2.176 -1.154,-2.836 -0.77,-0.659 -1.682,-0.989 -2.737,-0.989 -1.144,0 -2.243,0.351 -3.298,1.055 v 5.804 c -0.923,0.528 -1.846,0.791 -2.769,0.791 -2.902,0 -5.2,-1.22 -6.892,-3.66 -1.693,-2.44 -2.539,-5.617 -2.539,-9.53 0,-3.825 0.917,-6.903 2.751,-9.232 1.921,-2.463 4.629,-3.694 8.122,-3.694 2.795,0 5.634,0.945 8.516,2.836 z" /></g><g
           transform="translate(49.8218,20.5106)"
           id="g24"><path
             id="path26"
             style="fill:#1e22aa;fill-opacity:1;fill-rule:nonzero;stroke:none"
             d="M 0,0 V 11.409 C -5.408,10.046 -9.035,8.573 -10.882,6.99 c -1.363,-1.143 -2.044,-2.682 -2.044,-4.616 0,-1.451 0.45,-2.682 1.352,-3.693 0.9,-1.012 2.099,-1.517 3.594,-1.517 2.154,0 4.814,0.945 7.98,2.836 M 10.75,-6.199 H 0.857 L 0,-2.308 c -4.089,-2.947 -7.716,-4.419 -10.882,-4.419 -2.462,0 -4.507,0.771 -6.133,2.313 -1.627,1.542 -2.44,3.657 -2.44,6.345 0,2.732 1.077,4.869 3.231,6.412 2.77,1.982 8.178,3.854 16.224,5.617 v 2.843 c 0,4.362 -2.001,6.543 -6.001,6.543 -1.672,0 -3.232,-0.289 -4.683,-0.866 v -5.795 h -4.814 c -1.627,0 -2.44,0.637 -2.44,1.913 0,2.506 1.472,4.462 4.419,5.869 2.549,1.23 5.648,1.846 9.298,1.846 6.946,0 10.42,-3.275 10.42,-9.826 V -1.979 c 0,-0.923 0.462,-1.407 1.385,-1.451 l 3.166,-0.197 z" /></g><g
           transform="translate(116.5624,14.3112)"
           id="g28"><path
             id="path30"
             style="fill:#1e22aa;fill-opacity:1;fill-rule:nonzero;stroke:none"
             d="m 0,0 h -14.839 v 2.572 l 2.704,0.198 c 0.923,0.088 1.385,0.571 1.385,1.451 v 16.817 c 0,4.484 -1.967,6.727 -5.899,6.727 -2.21,0 -4.553,-0.638 -7.027,-1.913 V 4.221 c 0,-0.88 0.469,-1.363 1.407,-1.451 l 2.814,-0.198 V 0 h -14.443 v 2.572 l 2.77,0.198 c 0.923,0.088 1.385,0.571 1.385,1.451 v 17.147 c 0,4.264 -1.945,6.397 -5.834,6.397 -2.475,0 -4.839,-0.638 -7.092,-1.913 V 4.221 c 0,-0.88 0.469,-1.363 1.406,-1.451 l 2.814,-0.198 V 0 h -14.904 v 2.572 l 3.231,0.198 c 0.924,0.043 1.385,0.527 1.385,1.451 v 23.28 h -4.55 v 2.176 l 7.93,2.506 h 2.688 V 28.49 c 4.492,2.681 8.08,4.023 10.768,4.023 3.303,0 5.725,-1.495 7.267,-4.484 4.8,2.989 8.609,4.484 11.429,4.484 3.126,0 5.438,-1.099 6.937,-3.298 1.144,-1.759 1.717,-4.001 1.717,-6.726 V 4.221 c 0,-0.924 0.462,-1.408 1.385,-1.451 L 0,2.572 Z" /></g><g
           transform="translate(145.1495,30.306)"
           id="g32"><path
             id="path34"
             style="fill:#1e22aa;fill-opacity:1;fill-rule:nonzero;stroke:none"
             d="m 0,0 c 0,3.526 -0.773,6.369 -2.317,8.529 -1.678,2.292 -3.996,3.439 -6.954,3.439 -2.031,0 -4.283,-0.662 -6.755,-1.984 v -22.151 c 1.898,-0.705 3.686,-1.058 5.364,-1.058 3.444,0 6.136,1.344 8.08,4.033 C -0.862,-6.768 0,-3.704 0,0 m 6.595,0.954 c 0,-5.233 -1.489,-9.398 -4.465,-12.497 -2.976,-3.1 -7.066,-4.65 -12.269,-4.65 -1.456,0 -3.418,0.198 -5.887,0.594 v -10.495 c 0,-0.831 0.49,-1.289 1.469,-1.378 l 3.939,-0.328 v -2.506 h -16.025 v 2.506 l 3.165,0.329 c 0.923,0.088 1.385,0.549 1.385,1.383 v 37.594 h -4.55 v 2.176 l 7.996,2.506 h 2.621 v -3.693 c 3.483,2.682 6.813,4.023 9.988,4.023 3.527,0 6.481,-1.363 8.863,-4.089 2.513,-2.901 3.77,-6.727 3.77,-11.475" /></g><g
           transform="translate(175.5439,14.3112)"
           id="g36"><path
             id="path38"
             style="fill:#00954d;fill-opacity:1;fill-rule:nonzero;stroke:none"
             d="m 0,0 h -22.291 v 2.968 l 6.661,0.264 c 0.966,0.043 1.451,0.527 1.451,1.451 v 34.755 l -10.222,-1.781 v 2.968 l 14.245,4.419 H -7.65 V 4.683 c 0,-0.924 0.483,-1.408 1.451,-1.451 L 0,2.968 Z" /></g><g
           transform="translate(209.6379,14.3112)"
           id="g40"><path
             id="path42"
             style="fill:#1e22aa;fill-opacity:1;fill-rule:nonzero;stroke:none"
             d="m 0,0 h -10.42 v 3.759 c -3.737,-2.858 -7.277,-4.287 -10.618,-4.287 -6.067,0 -9.101,3.473 -9.101,10.42 v 17.873 h -4.616 v 2.242 l 8.112,2.506 h 2.703 V 11.146 c 0,-4.793 2.111,-7.189 6.331,-7.189 2.507,0 4.903,0.571 7.189,1.715 v 22.093 h -4.616 v 2.242 l 8.045,2.506 h 2.638 V 4.221 c 0,-0.924 0.483,-1.408 1.451,-1.451 L 0,2.572 Z" /></g><g
           transform="translate(235.4891,23.9171)"
           id="g44"><path
             id="path46"
             style="fill:#1e22aa;fill-opacity:1;fill-rule:nonzero;stroke:none"
             d="m 0,0 c 0,-3.203 -1.111,-5.692 -3.33,-7.469 -2.221,-1.776 -5.31,-2.665 -9.267,-2.665 -3.693,0 -6.749,0.482 -9.167,1.442 v 8.781 h 3.364 l 0.791,-5.62 c 1.671,-1.091 3.628,-1.635 5.87,-1.635 1.802,0 3.242,0.494 4.32,1.481 1.076,0.987 1.615,2.16 1.615,3.52 0,1.667 -0.703,3.027 -2.11,4.08 -0.748,0.57 -2.727,1.623 -5.935,3.159 -2.595,1.228 -4.442,2.412 -5.54,3.553 -1.276,1.316 -1.913,2.917 -1.913,4.804 0,2.939 1.044,5.265 3.133,6.975 2.087,1.711 5.001,2.567 8.738,2.567 3.385,0 6.199,-0.506 8.441,-1.517 v -7.782 h -3.413 l -0.525,4.683 c -1.269,1.01 -2.932,1.516 -4.989,1.516 -3.545,0 -5.317,-1.47 -5.317,-4.409 0,-1.448 0.503,-2.61 1.509,-3.487 1.007,-0.878 2.933,-1.974 5.779,-3.29 C -2.649,6.273 0,3.378 0,0" /></g></g></g></g></svg>